<svg xmlns="http://www.w3.org/2000/svg" version="1.1" xmlns:xlink="http://www.w3.org/1999/xlink" xmlns:svgjs="http://svgjs.dev/svgjs" width="100%" height="100%" viewBox="0 0 1000 600"><rect width="1000" height="600" x="0" y="0" fill="black"/><g><rect width="333.3333333333333" height="333.3333333333333" rx="13.333333333333334" ry="13.333333333333334" y="280.9775835032242" fill="orange" transform="matrix(0.4830817766970012,0,0,0.4830817766970012,0,83.75121751764064)" x="258.7554931640625"/><path d="M405.17262677993335 401.7747589644516L404.3356770523425 386.03545436503384Q398.80250940882485 383.03638450783313 387.178207636729 383.03638450783313Q375.5306572610889 383.03638450783313 368.16084993758017 389.2205130505881L368.16084993758017 389.2205130505881Q366.1614700327797 392.4055717361424 366.1614700327797 398.42696005408806L366.1614700327797 398.42696005408806Q366.1614700327797 411.32993502111447 379.8781461238528 416.5143736114692L379.8781461238528 416.5143736114692L401.6388390412162 424.88387088737824Q423.07405150896096 433.0906279384779 423.07405150896096 454.50259180267847L423.07405150896096 454.50259180267847Q423.07405150896096 469.0794662248867 412.8679145530608 476.6120137732048Q402.66177759716066 484.1445613215229 386.41100371977063 484.1445613215229L386.41100371977063 484.1445613215229Q363.9761012996256 484.1445613215229 349.4224754809616 470.4046366269056L349.4224754809616 470.4046366269056L360.140081714834 452.1544828447151L364.1620901279792 453.34016162546885L366.6729393107519 469.40494667450537Q372.85706785350686 473.7524355372692 384.57436403977954 473.7524355372692L384.57436403977954 473.7524355372692Q409.5201156426972 473.7524355372692 409.5201156426972 456.8507007606418L409.5201156426972 456.8507007606418Q409.5201156426972 449.9923627151053 405.17262677993335 445.6448738523414Q400.80188931362534 441.2741363860334 391.5954423101254 437.7635972508604L391.5954423101254 437.7635972508604L372.34559857553467 430.39378992735163Q352.77027439132524 422.8612423790335 352.77027439132524 403.28591819482415L352.77027439132524 403.28591819482415Q352.77027439132524 388.5463035478066 363.13915157203473 380.59528113569297Q373.53127735628846 372.64425872357947 389.5960624053249 372.64425872357947L389.5960624053249 372.64425872357947Q409.17138658953434 372.64425872357947 421.07467160416047 386.38418341819676L421.07467160416047 386.38418341819676L409.17138658953434 402.96043774520547L405.17262677993335 401.7747589644516ZM487.1937000838417 414.84047415628737L487.1937000838417 414.84047415628737Q494.0520381293783 422.21028147979615 494.0520381293783 433.9973234767014Q494.0520381293783 445.8076140771508 485.7522866641018 453.4099074361015Q477.4757838023696 461.0354493985963 464.4100686105338 461.0354493985963L464.4100686105338 461.0354493985963Q461.06226970017025 461.0354493985963 458.06319984296954 460.5239801206241L458.06319984296954 460.5239801206241Q453.5297221518521 464.89471758693213 453.5297221518521 469.242206449696L453.5297221518521 469.242206449696Q453.5297221518521 470.7533656800685 455.8778311098155 471.17184054386394Q458.2259400677789 471.5903154076594 476.96431452439737 473.2642148628412L476.96431452439737 473.2642148628412Q487.5191805334604 474.26390481524146 494.4705129931737 479.6110836304055Q501.42184545288706 484.9815110491138 501.42184545288706 496.35007818222357Q501.42184545288706 507.7418939188775 491.44819453242883 515.1814470530189Q481.4977922155148 522.6442487907043 465.50275297711084 522.6442487907043Q449.53096234225114 522.6442487907043 440.81273601317923 516.6926062833913Q432.11775828765155 510.7409637760782 432.11775828765155 500.883555873341L432.11775828765155 500.883555873341Q432.11775828765155 488.81753063390545 444.5092639767057 480.28529313318705L444.5092639767057 480.28529313318705Q441.8124259655795 477.26297467244217 441.8124259655795 473.6826897266366Q441.8124259655795 470.0791561772869 444.16053492354285 465.6386729003463Q446.50864388150626 461.19818962340565 450.1819232414885 458.01313093785143L450.1819232414885 458.01313093785143Q443.16084497114264 454.6653320274878 439.23183097217424 448.3184632599235Q435.30281697320584 441.9483458888149 435.30281697320584 433.5788486129059L435.30281697320584 433.5788486129059Q435.30281697320584 421.18734292385176 443.4863254207613 413.4920551507243Q451.693082471861 405.79676737759684 464.5960574388874 405.79676737759684L464.5960574388874 405.79676737759684Q473.96524466719666 405.79676737759684 481.14906316235187 410.1442562403607L481.14906316235187 410.1442562403607Q488.0306498114326 401.6120187396423 492.7036191238152 398.1014796044694L492.7036191238152 398.1014796044694L499.9106862225146 406.4709768803784L498.9109962701143 408.9818260631511Q489.3558202134516 413.65479537553364 487.1937000838417 414.84047415628737ZM451.20486179743295 484.1445613215229L451.20486179743295 484.1445613215229Q444.99748465113373 489.8172205863057 444.99748465113373 497.44276254880054Q444.99748465113373 505.0683045112955 451.27460760806554 509.06706432089646Q457.5517305649973 513.0890727340416 468.36233121304645 513.0890727340416Q479.1496832575514 513.0890727340416 486.6822308058695 508.57884364646844L486.6822308058695 508.57884364646844Q489.3558202134516 504.71957545813257 489.3558202134516 498.0239776374054Q489.3558202134516 491.32837981667814 485.171071575497 489.1662596870683Q480.9863229375425 486.9808909539143 472.77956588644287 486.1439412263234L472.77956588644287 486.1439412263234Q461.57373897814244 484.9815110491138 455.0408813822246 484.9815110491138L455.0408813822246 484.9815110491138Q453.3669819270428 484.7955222207603 451.20486179743295 484.1445613215229ZM448.34528356149735 433.74158883771526L448.34528356149735 433.74158883771526Q448.34528356149735 441.9483458888149 452.6927724242612 446.5515693905649Q457.06350989056926 451.15479289231484 464.8285434743293 451.15479289231484Q472.6168256616335 451.15479289231484 477.15030335275094 448.4812034847328L477.15030335275094 448.4812034847328Q478.47547375476984 446.807304029551 479.56815812134687 442.11108611362425Q480.66084248792384 437.43811680124173 480.66084248792384 433.0906279384779L480.66084248792384 433.0906279384779Q480.66084248792384 424.88387088737824 476.31335362516 420.28064738562824Q471.94261615885193 415.6774238838783 464.17758257509195 415.6774238838783Q456.38930038778767 415.6774238838783 451.8558226966703 418.35101329146033L451.8558226966703 418.35101329146033Q450.53065229465136 420.02491274664214 449.4379679280744 424.7211306625689Q448.34528356149735 429.3940999749514 448.34528356149735 433.74158883771526Z " fill="black" transform="matrix(0.4830817766970012,0,0,0.4830817766970012,0,83.75121751764064)"/><path d="M700.8420708929939 411.20154666571085L700.8420708929939 484.0869692475515Q700.8420708929939 497.0443777065454 694.6108171722624 506.8524160539783Q688.3795634515309 516.6379589006142 677.6717050722234 522.644257613377L677.6717050722234 522.644257613377L675.4221549925371 519.7198425097847Q687.7271939284219 505.3002264989946 687.7271939284219 485.3917082937696L687.7271939284219 485.3917082937696L687.7271939284219 422.8542160784866L676.3894615268023 421.0770715155343L675.4221549925371 417.52278238962975L697.6027187782454 409.89680761949273L700.8420708929939 411.20154666571085ZM693.4635466316223 393.07017302343814Q689.6618069969522 393.07017302343814 687.1648064085002 390.55067693418937Q684.6453103192514 388.03118084494054 684.6453103192514 384.22944121027047Q684.6453103192514 380.4277015756004 687.1648064085002 377.840718983961Q689.6618069969522 375.25373639232157 693.4635466316223 375.25373639232157Q697.2877817670892 375.25373639232157 699.8747643587287 377.840718983961Q702.461746950368 380.4277015756004 702.461746950368 384.22944121027047Q702.461746950368 388.03118084494054 699.8747643587287 390.55067693418937Q697.2877817670892 393.07017302343814 693.4635466316223 393.07017302343814ZM731.9308529942605 445.8671133936789L731.9308529942605 445.8671133936789Q731.9308529942605 475.02128242641515 754.1339122807656 475.02128242641515L754.1339122807656 475.02128242641515Q762.2322925676367 475.02128242641515 768.0586272740246 472.5917683403538L768.0586272740246 472.5917683403538Q774.0424304859906 464.8083250646387 774.0424304859906 449.42140251958347L774.0424304859906 449.42140251958347Q774.0424304859906 420.2672334868472 751.8618667002822 420.2672334868472L751.8618667002822 420.2672334868472Q743.7634864134111 420.2672334868472 737.9371517070232 422.6967475729086L737.9371517070232 422.6967475729086Q731.9308529942605 430.48019084862364 731.9308529942605 445.8671133936789ZM752.0193352058603 485.3917082937696Q736.969845172758 485.3917082937696 727.5667258396687 475.4936879431493Q718.1636065065794 465.61816309332585 718.1636065065794 447.5542759534437Q718.1636065065794 429.5128843143585 728.5340323739339 419.7048459669256Q738.9044582412884 409.89680761949273 753.9764437751876 409.89680761949273Q769.0259338082898 409.89680761949273 778.4290531413791 419.7948279701131Q787.8096769736716 429.6703528199365 787.8096769736716 447.73423995981864Q787.8096769736716 465.7756315989039 777.4617466071139 475.5836699463368Q767.0913207397595 485.3917082937696 752.0193352058603 485.3917082937696ZM850.3471691889546 418.3326204183169L850.3471691889546 418.3326204183169Q856.9833419240297 425.4636941709229 856.9833419240297 436.8689130749331Q856.9833419240297 448.29662747974027 848.952448139549 455.6526562403149Q840.9440498558653 463.03118050168644 828.3015784080276 463.03118050168644L828.3015784080276 463.03118050168644Q825.062226293279 463.03118050168644 822.1603066904836 462.5362794841554L822.1603066904836 462.5362794841554Q817.7736840350949 466.7654336339659 817.7736840350949 470.97209228297953L817.7736840350949 470.97209228297953Q817.7736840350949 472.43429983477574 820.0457296155782 472.8392188491193Q822.3177751960616 473.24413786346287 840.4491488383343 474.8638139208371L840.4491488383343 474.8638139208371Q850.6621062001107 475.8311204551023 857.3882609383732 481.0050856383811Q864.1144156766356 486.20154632245675 864.1144156766356 497.2018462121234Q864.1144156766356 508.22464160258704 854.4638458347808 515.4232018575835Q844.8357714937229 522.644257613377 829.3588669454801 522.644257613377Q813.9044578980343 522.644257613377 805.4686450992101 516.8854094093798Q797.0553278011828 511.12656120538253 797.0553278011828 501.588468867512L797.0553278011828 501.588468867512Q797.0553278011828 489.9133039539394 809.0454297259116 481.65745516149013L809.0454297259116 481.65745516149013Q806.4359516334753 478.73304005789777 806.4359516334753 475.26873293518065Q806.4359516334753 471.7819303116667 808.7079972139586 467.4852896594656Q810.9800427944419 463.1886490072645 814.5343319203465 460.10676539809407L814.5343319203465 460.10676539809407Q807.7406906796934 456.86741328334557 803.9389510450234 450.7261415658016Q800.1372114103533 444.5623743474608 800.1372114103533 436.4639940605896L800.1372114103533 436.4639940605896Q800.1372114103533 424.47389213586086 808.0556276908495 417.02788137209876Q815.9965394721427 409.5818706083366 828.4815424144024 409.5818706083366L828.4815424144024 409.5818706083366Q837.5472292355388 409.5818706083366 844.4983389817698 413.78852925735026L844.4983389817698 413.78852925735026Q851.1570072176418 405.53268046490103 855.6786028778115 402.1358598445745L855.6786028778115 402.1358598445745L862.6522081248395 410.2342401314457L861.6849015905742 412.66375421750706Q852.439250763063 417.1853498776768 850.3471691889546 418.3326204183169ZM815.5241339554085 485.3917082937696L815.5241339554085 485.3917082937696Q809.5178352426458 490.8806104882046 809.5178352426458 498.25913474957605Q809.5178352426458 505.63765901094763 815.5916204577991 509.5068851480083Q821.6654056729525 513.3986067858658 832.1258135434944 513.3986067858658Q842.5637259132395 513.3986067858658 849.8522681714236 509.0344796312741L849.8522681714236 509.0344796312741Q852.439250763063 505.3002264989946 852.439250763063 498.8215222694977Q852.439250763063 492.34281804000074 848.3900606196274 490.2507364658923Q844.3408704761919 488.1361593909871 836.3999586948987 487.3263213623L836.3999586948987 487.3263213623Q825.5571273108101 486.20154632245675 819.2358915868912 486.20154632245675L819.2358915868912 486.20154632245675Q817.6162155295169 486.02158231608183 815.5241339554085 485.3917082937696ZM812.7571873573942 436.6214625661676L812.7571873573942 436.6214625661676Q812.7571873573942 444.5623743474608 816.9638460064078 449.01648350523993Q821.1930001562183 453.4705926630191 828.7064974223711 453.4705926630191Q836.2424901893206 453.4705926630191 840.6291128447092 450.8836100713797L840.6291128447092 450.8836100713797Q841.9113563901304 449.26393401400543 842.9686449275831 444.7198428530388Q844.0259334650357 440.1982471928691 844.0259334650357 435.9915885438554L844.0259334650357 435.9915885438554Q844.0259334650357 428.0506767625623 839.819274816022 423.59656760478316Q835.5901206662115 419.142458447004 828.0766234000589 419.142458447004Q820.5406306331092 419.142458447004 816.1540079777208 421.7294410386434L816.1540079777208 421.7294410386434Q814.8717644322994 423.34911709601766 813.8144758948469 427.8932082569842Q812.7571873573942 432.41480391715396 812.7571873573942 436.6214625661676ZM885.4851414336567 445.8671133936789L885.4851414336567 445.8671133936789Q885.4851414336567 475.02128242641515 907.6657052193651 475.02128242641515L907.6657052193651 475.02128242641515Q915.7640855062363 475.02128242641515 921.612915713421 472.5917683403538L921.612915713421 472.5917683403538Q927.596718925387 464.8083250646387 927.596718925387 449.42140251958347L927.596718925387 449.42140251958347Q927.596718925387 420.2672334868472 905.4161551396787 420.2672334868472L905.4161551396787 420.2672334868472Q897.3177748528075 420.2672334868472 891.4689446456227 422.6967475729086L891.4689446456227 422.6967475729086Q885.4851414336567 430.48019084862364 885.4851414336567 445.8671133936789ZM905.5736236452567 485.3917082937696Q890.5016381113576 485.3917082937696 881.1210142790651 475.4936879431493Q871.7178949459758 465.61816309332585 871.7178949459758 447.5542759534437Q871.7178949459758 429.5128843143585 882.0883208133303 419.7048459669256Q892.4587466806847 409.89680761949273 907.508236713787 409.89680761949273Q922.5802222476862 409.89680761949273 931.9608460799786 419.7948279701131Q941.363965413068 429.6703528199365 941.363965413068 447.73423995981864Q941.363965413068 465.7756315989039 930.9935395457135 475.5836699463368Q920.623113678359 485.3917082937696 905.5736236452567 485.3917082937696ZM959.0229335386066 450.8836100713797L957.2457889756542 448.94899700284935L959.1804020441846 442.62776127893045Q976.029532141036 442.62776127893045 994.4983382952616 441.6604547446653L994.4983382952616 441.6604547446653L1000.6396100128056 441.3230222327123L1002.416754575758 443.2801308020395L1000.6396100128056 451.69344810006675Q963.8819617107292 450.8836100713797 959.0229335386066 450.8836100713797L959.0229335386066 450.8836100713797ZM1070.6231129918508 479.5428780865849L1069.9707434687418 479.2279410754288Q1059.4428490958092 485.3917082937696 1046.3279721312372 485.3917082937696Q1033.1905996658684 485.3917082937696 1025.6771023997157 474.5263814088841Q1018.1411096327661 463.68355002479547 1018.1411096327661 446.58696941917856Q1018.1411096327661 429.5128843143585 1028.4215534969333 419.7048459669256Q1038.7019973611002 409.89680761949273 1054.5838209236865 409.89680761949273L1054.5838209236865 409.89680761949273Q1061.5349306699177 409.89680761949273 1067.3837608771023 410.8866096545548L1067.3837608771023 410.8866096545548L1069.6333109567888 411.35901517128895L1069.6333109567888 385.60166675887916L1058.295578555169 383.8245221959269L1057.328272020904 380.2702330700223L1079.5313313074091 372.6442582998853L1082.7706834221576 373.9489973461034L1082.7706834221576 475.3362194375713L1093.9284518174022 480.53268012164693L1092.9611452831373 484.0869692475515L1077.574222738082 485.3917082937696L1075.3021771575986 484.4019062587076L1070.6231129918508 479.5428780865849ZM1069.6333109567888 472.0968673228228L1069.6333109567888 422.53927906733054Q1063.1546067272918 420.2672334868472 1053.684000891812 420.2672334868472Q1044.213395056332 420.2672334868472 1037.892159332413 422.6967475729086L1037.892159332413 422.6967475729086Q1031.908356120447 430.6376593542017 1031.908356120447 445.8671133936789L1031.908356120447 445.8671133936789Q1031.908356120447 474.21144439772803 1053.2790818774683 474.21144439772803L1053.2790818774683 474.21144439772803Q1061.2199936587615 474.21144439772803 1069.6333109567888 472.0968673228228L1069.6333109567888 472.0968673228228ZM1115.1642045696422 462.5362794841554Q1115.1642045696422 469.35241622560534 1118.8759622011248 472.0968673228228Q1122.6102153334045 474.8638139208371 1127.5367300079176 474.8638139208371Q1132.4857401832278 474.8638139208371 1140.7415889756771 472.0968673228228L1140.7415889756771 472.0968673228228L1141.0790214876301 453.313124157441Q1120.3381697529212 454.43789919728425 1115.3216730752204 460.444197910047L1115.3216730752204 460.444197910047Q1115.1642045696422 461.25403593873415 1115.1642045696422 462.5362794841554L1115.1642045696422 462.5362794841554ZM1141.7088955099423 479.5428780865849L1140.899057481255 479.2279410754288Q1130.3711631083227 485.3917082937696 1121.6429087991391 485.3917082937696Q1112.892158989159 485.3917082937696 1107.7856803082707 479.79032859535045Q1102.6792016273826 474.21144439772803 1102.6792016273826 465.5506765909352Q1102.6792016273826 456.86741328334557 1111.1825009285974 452.1883491175978Q1119.6858002298122 447.48678945105314 1141.0790214876301 446.182050404835L1141.0790214876301 446.182050404835L1141.2364899932081 435.65415603190246Q1141.393958498786 428.3656137737184 1137.7496873696941 423.91150461593924Q1134.1054162406022 419.4573954581601 1127.7841805166831 419.4573954581601Q1121.4629447927643 419.4573954581601 1116.7838806270165 420.9196030099563L1116.7838806270165 420.9196030099563L1115.4791415807983 433.2246419458411L1111.5874199429409 434.37191248648116L1102.6792016273826 421.7294410386434Q1106.255986254084 417.6802508952078 1113.3645645058932 413.78852925735026Q1120.4956382584992 409.89680761949273 1130.3711631083227 409.89680761949273L1130.3711631083227 409.89680761949273Q1154.508835463358 409.89680761949273 1154.508835463358 439.2309406586039L1154.508835463358 439.2309406586039L1153.6989974346711 475.3362194375713L1164.8792613307128 479.2279410754288L1163.9119547964474 482.7822302013334L1150.1447083087664 485.3917082937696L1146.905356194018 484.0869692475515L1141.7088955099423 479.5428780865849ZM1175.5646242092232 450.8836100713797L1173.7874796462709 448.94899700284935L1175.7220927148014 442.62776127893045Q1192.5712228116527 442.62776127893045 1211.0400289658783 441.6604547446653L1211.0400289658783 441.6604547446653L1217.2037961842193 441.3230222327123L1218.9809407471716 443.2801308020395L1217.2037961842193 451.69344810006675Q1180.423652381346 450.8836100713797 1175.5646242092232 450.8836100713797L1175.5646242092232 450.8836100713797ZM1280.3711624218145 433.2246419458411L1279.066423375596 420.9196030099563Q1275.5121342496918 419.9522964756911 1267.7286909739767 419.9522964756911Q1259.9452476982615 419.9522964756911 1254.4563455038265 422.6967475729086L1254.4563455038265 422.6967475729086Q1248.292578285486 430.48019084862364 1248.292578285486 444.89980685941373Q1248.292578285486 459.29692736940694 1255.0862195261388 467.17035264830946Q1261.9023562675889 475.02128242641515 1272.5877191460993 475.02128242641515Q1283.27308202461 475.02128242641515 1292.518732852121 470.8146237774015L1292.518732852121 470.8146237774015L1294.7682829318078 475.02128242641515Q1292.8336698632772 476.9558954949455 1290.08921876606 478.98049056666326Q1287.3222721680456 481.0050856383811 1281.248486952892 483.1871492156769Q1275.1747017377388 485.3917082937696 1268.5385290026638 485.3917082937696L1268.5385290026638 485.3917082937696Q1253.4665434687645 485.3917082937696 1244.0859196364722 475.4262014407587Q1234.682800303383 465.4606945877478 1234.682800303383 447.6442579566312Q1234.682800303383 429.8278213255146 1244.9632441675499 419.86231447250367Q1255.2661835325139 409.89680761949273 1270.00073655446 409.89680761949273L1270.00073655446 409.89680761949273Q1277.2892788126442 409.89680761949273 1282.9581450134538 412.66375421750706Q1288.6270112142636 415.4082053147245 1290.5616242827941 417.52278238962975Q1292.518732852121 419.6148639637382 1293.6435078919644 421.7294410386434L1293.6435078919644 421.7294410386434L1284.240388558875 434.37191248648116L1280.3711624218145 433.2246419458411ZM1318.096117258156 445.8671133936789L1318.096117258156 445.8671133936789Q1318.096117258156 475.02128242641515 1340.2991765446613 475.02128242641515L1340.2991765446613 475.02128242641515Q1348.3975568315323 475.02128242641515 1354.2238915379203 472.5917683403538L1354.2238915379203 472.5917683403538Q1360.2076947498863 464.8083250646387 1360.2076947498863 449.42140251958347L1360.2076947498863 449.42140251958347Q1360.2076947498863 420.2672334868472 1338.027130964178 420.2672334868472L1338.027130964178 420.2672334868472Q1329.9287506773067 420.2672334868472 1324.1024159709189 422.6967475729086L1324.1024159709189 422.6967475729086Q1318.096117258156 430.48019084862364 1318.096117258156 445.8671133936789ZM1338.184599469756 485.3917082937696Q1323.1126139358569 485.3917082937696 1313.7319901035644 475.4936879431493Q1304.328870770475 465.61816309332585 1304.328870770475 447.5542759534437Q1304.328870770475 429.5128843143585 1314.6992966378295 419.7048459669256Q1325.069722505184 409.89680761949273 1340.1192125382863 409.89680761949273Q1355.1911980721854 409.89680761949273 1364.5943174052748 419.7948279701131Q1373.9749412375672 429.6703528199365 1373.9749412375672 447.73423995981864Q1373.9749412375672 465.7756315989039 1363.6045153702128 475.5836699463368Q1353.2565850036551 485.3917082937696 1338.184599469756 485.3917082937696ZM1403.4665427822565 373.9489973461034L1403.4665427822565 416.0605748378336Q1413.994437155189 409.89680761949273 1427.1093141197607 409.89680761949273Q1440.224191084333 409.89680761949273 1447.7601838512824 420.76213450437825Q1455.296176618232 431.6049658884669 1455.296176618232 448.7015464940838Q1455.296176618232 465.7756315989039 1444.993237253268 475.5836699463368Q1434.712793389101 485.3917082937696 1418.8534653273118 485.3917082937696L1418.8534653273118 485.3917082937696Q1412.1947970914398 485.3917082937696 1403.376560779069 483.839518738786Q1394.5583244666982 482.3098246845992 1390.6666028288405 480.352716115272L1390.6666028288405 480.352716115272L1390.6666028288405 385.60166675887916L1379.3288704272209 383.8245221959269L1378.361563892956 380.2702330700223L1400.2271906675078 372.6442582998853L1403.4665427822565 373.9489973461034ZM1403.7814797934125 423.19164859043957L1403.7814797934125 472.7492368459319Q1410.2601840229095 475.02128242641515 1419.7307898583895 475.02128242641515Q1429.2013956938695 475.02128242641515 1435.522631417788 472.5917683403538L1435.522631417788 472.5917683403538Q1441.528930130551 464.6508565590607 1441.528930130551 449.42140251958347L1441.528930130551 449.42140251958347Q1441.528930130551 421.0770715155343 1420.135708872733 421.0770715155343L1420.135708872733 421.0770715155343Q1412.1947970914398 421.0770715155343 1403.7814797934125 423.19164859043957L1403.7814797934125 423.19164859043957ZM1508.745486511582 432.909704934685L1508.745486511582 420.60466599880016Q1504.5163323617712 420.60466599880016 1498.779979658571 421.8194230418309Q1493.0211314545736 423.03418008486153 1490.7490858740903 424.0014866191267L1490.7490858740903 424.0014866191267L1490.7490858740903 475.3362194375713L1505.1687018848806 480.53268012164693L1504.2013953506153 484.0869692475515L1466.2964765078987 484.0869692475515L1465.3291699736335 480.53268012164693L1472.6177122318177 477.45079651247653Q1475.54212733541 476.30352597183645 1476.5769203720656 475.02128242641515Q1477.6342089095183 473.71654338019704 1477.6342089095183 471.28702929413566L1477.6342089095183 471.28702929413566L1477.6342089095183 422.8542160784866L1466.2964765078987 421.0770715155343L1465.3291699736335 417.52278238962975L1486.2274902139206 409.89680761949273L1489.466842328669 411.20154666571085L1490.1192118517781 417.1853498776768L1490.7490858740903 417.52278238962975Q1493.0211314545736 415.74563782667747 1500.0622232039923 413.0686732318506Q1507.1258104542076 410.3917086370237 1510.5226310745343 409.89680761949273L1510.5226310745343 409.89680761949273Q1513.9194516948605 410.8866096545548 1517.8111733327182 414.03597976611576Q1521.7028949705757 417.1853498776768 1523.142607021575 419.9522964756911L1523.142607021575 419.9522964756911L1512.6147126486426 434.0344799745282L1508.745486511582 432.909704934685ZM1540.3291696303795 471.28702929413566L1540.3291696303795 471.28702929413566L1540.3291696303795 422.8542160784866L1528.9914372287599 421.0770715155343L1528.001635193698 417.52278238962975L1550.204694480203 409.89680761949273L1553.4440465949515 411.20154666571085L1553.4440465949515 475.3362194375713L1566.243986548367 480.53268012164693L1565.2541845133053 484.0869692475515L1528.9914372287599 484.0869692475515L1528.001635193698 480.53268012164693L1535.2901774518818 477.45079651247653Q1538.2145925554742 476.30352597183645 1539.2718810929268 475.02128242641515Q1540.3291696303795 473.71654338019704 1540.3291696303795 471.28702929413566ZM1546.0655223335798 393.07017302343814Q1542.2637826989098 393.07017302343814 1539.744286609661 390.55067693418937Q1537.2472860212092 388.03118084494054 1537.2472860212092 384.22944121027047Q1537.2472860212092 380.4277015756004 1539.744286609661 377.840718983961Q1542.2637826989098 375.25373639232157 1546.0655223335798 375.25373639232157Q1549.86726196825 375.25373639232157 1552.476740060686 377.840718983961Q1555.0637226523259 380.4277015756004 1555.0637226523259 384.22944121027047Q1555.0637226523259 388.03118084494054 1552.476740060686 390.55067693418937Q1549.86726196825 393.07017302343814 1546.0655223335798 393.07017302343814ZM1630.2211908146496 471.28702929413566L1630.2211908146496 436.6214625661676Q1630.2211908146496 428.3656137737184 1626.3969556791826 424.72134264462636Q1622.5952160445127 421.0770715155343 1614.1818987464853 421.0770715155343Q1605.746085947661 421.0770715155343 1597.3327686496339 423.19164859043957L1597.3327686496339 423.19164859043957L1597.3327686496339 475.3362194375713L1610.1327086030497 480.53268012164693L1609.1654020687845 484.0869692475515L1572.8801592834423 484.0869692475515L1571.912852749177 480.53268012164693L1579.201395007361 477.45079651247653Q1582.1033146101568 476.30352597183645 1583.1606031476092 475.02128242641515Q1584.2178916850619 473.71654338019704 1584.2178916850619 471.28702929413566L1584.2178916850619 471.28702929413566L1584.2178916850619 422.8542160784866L1572.8801592834423 421.0770715155343L1571.912852749177 417.52278238962975L1592.7886774886674 409.89680761949273L1596.0280296034157 411.20154666571085L1596.3654621153687 415.74563782667747L1597.0178316384777 416.0605748378336Q1608.1756000337223 409.89680761949273 1620.0082334528731 409.89680761949273L1620.0082334528731 409.89680761949273Q1643.3360677792216 409.89680761949273 1643.3360677792216 434.6868494976373L1643.3360677792216 434.6868494976373L1643.3360677792216 475.3362194375713L1656.1360077326372 480.53268012164693L1655.1462056975754 484.0869692475515L1618.88345841303 484.0869692475515L1617.893656377968 480.53268012164693L1625.182198636152 477.45079651247653Q1628.1066137397443 476.30352597183645 1629.163902277197 475.02128242641515Q1630.2211908146496 473.71654338019704 1630.2211908146496 471.28702929413566L1630.2211908146496 471.28702929413566ZM1716.5364273722184 471.28702929413566L1716.5364273722184 436.6214625661676Q1716.5364273722184 428.3656137737184 1712.734687737548 424.72134264462636Q1708.932948102878 421.0770715155343 1700.4971353040542 421.0770715155343Q1692.0838180060266 421.0770715155343 1683.6705007079995 423.19164859043957L1683.6705007079995 423.19164859043957L1683.6705007079995 475.3362194375713L1696.4479451606185 480.53268012164693L1695.480638626353 484.0869692475515L1659.1953958410108 484.0869692475515L1658.228089306746 480.53268012164693L1665.5166315649299 477.45079651247653Q1668.4410466685222 476.30352597183645 1669.4983352059749 475.02128242641515Q1670.5331282426305 473.71654338019704 1670.5331282426305 471.28702929413566L1670.5331282426305 471.28702929413566L1670.5331282426305 385.60166675887916L1659.1953958410108 383.8245221959269L1658.228089306746 380.2702330700223L1680.093716081298 372.6442582998853L1683.3330681960465 373.9489973461034L1683.3330681960465 416.0605748378336Q1694.5133320920881 409.89680761949273 1706.3459655112388 409.89680761949273L1706.3459655112388 409.89680761949273Q1729.6513043367904 409.89680761949273 1729.6513043367904 434.6868494976373L1729.6513043367904 434.6868494976373L1729.6513043367904 475.3362194375713L1742.451244290206 480.53268012164693L1741.4839377559406 484.0869692475515L1705.1986949705988 484.0869692475515L1704.2313884363334 480.53268012164693L1711.5199306945174 477.45079651247653Q1714.4443457981101 476.30352597183645 1715.4791388347658 475.02128242641515Q1716.5364273722184 473.71654338019704 1716.5364273722184 471.28702929413566L1716.5364273722184 471.28702929413566ZM1761.5724199675406 462.5362794841554Q1761.5724199675406 469.35241622560534 1765.2841775990237 472.0968673228228Q1769.018430731303 474.8638139208371 1773.9674409066133 474.8638139208371Q1778.8939555811266 474.8638139208371 1787.1498043735755 472.0968673228228L1787.1498043735755 472.0968673228228L1787.4872368855285 453.313124157441Q1766.7463851508196 454.43789919728425 1761.7298884731185 460.444197910047L1761.7298884731185 460.444197910047Q1761.5724199675406 461.25403593873415 1761.5724199675406 462.5362794841554L1761.5724199675406 462.5362794841554ZM1788.1396064086375 479.5428780865849L1787.3297683799506 479.2279410754288Q1776.8018740070183 485.3917082937696 1768.0511241970376 485.3917082937696Q1759.3003743870577 485.3917082937696 1754.1938957061693 479.79032859535045Q1749.087417025281 474.21144439772803 1749.087417025281 465.5506765909352Q1749.087417025281 456.86741328334557 1757.590716326496 452.1883491175978Q1766.0940156277106 447.48678945105314 1787.4872368855285 446.182050404835L1787.4872368855285 446.182050404835L1787.6447053911065 435.65415603190246Q1787.8021738966845 428.3656137737184 1784.1579027675925 423.91150461593924Q1780.5136316385006 419.4573954581601 1774.1923959145815 419.4573954581601Q1767.8936556914596 419.4573954581601 1763.1920960249154 420.9196030099563L1763.1920960249154 420.9196030099563L1761.887356978697 433.2246419458411L1757.9956353408393 434.37191248648116L1749.087417025281 421.7294410386434Q1752.6642016519827 417.6802508952078 1759.7952754045887 413.78852925735026Q1766.9038536563976 409.89680761949273 1776.8018740070183 409.89680761949273L1776.8018740070183 409.89680761949273Q1800.9170508612565 409.89680761949273 1800.9170508612565 439.2309406586039L1800.9170508612565 439.2309406586039L1800.1072128325695 475.3362194375713L1811.2874767286112 479.2279410754288L1810.3201701943458 482.7822302013334L1796.5529237066648 485.3917082937696L1793.3135715919166 484.0869692475515L1788.1396064086375 479.5428780865849Z " fill="orange" transform="matrix(0.4830817766970012,0,0,0.4830817766970012,0,83.75121751764064)"/></g></svg>